# xmcd
#
# Track frame offsets: 
#        150
#        25727
#        45745
#        65995
#        89095
#        109945
#        128743
#        146143
#        162193
#        176593
#        188143
#        200186
#
# Disc length: 2858 seconds
#
# Revision: 1
# Processed by: cddbd v1.5.2PL0 Copyright (c) Steve Scherf et al.
# Submitted via: ExactAudioCopyFreeDBPlugin 1.0
#
DISCID=b80b280c
DTITLE=小確幸日記 - 笑顏綻放的日子SMILING DAY
DYEAR=2011
DGENRE=New Age
TTITLE0=我心如此Resolution
TTITLE1=虛擬咖啡屋Nowhere Cafe
TTITLE2=夜曲，降E大調Nocturne in E flat major
TTITLE3=第一號華麗曲，阿拉貝斯克ArabesqueNo.1:Andantino con moto
TTITLE4=晨間薄霧Morning Mist
TTITLE5=白沙灣White Sand Shore
TTITLE6=如此神奇Everything Magical
TTITLE7=米塔羅之歌Mitra¡¦s Song
TTITLE8=小花園Little Garden
TTITLE9=自此之後Everafter
TTITLE10=吉諾佩第，第一號Gymnopedies: No. 1. Lent et douloureux
TTITLE11=星光燦爛starfall
EXTD=YEAR: 2011
EXTT0=
EXTT1=
EXTT2=
EXTT3=
EXTT4=
EXTT5=
EXTT6=
EXTT7=
EXTT8=
EXTT9=
EXTT10=
EXTT11=
PLAYORDER=
